<?xml version="1.0" encoding="UTF-8"?>
<svg width="92px" height="94px" viewBox="0 0 92 94" version="1.1" xmlns="http://www.w3.org/2000/svg" xmlns:xlink="http://www.w3.org/1999/xlink">
    <!-- Generator: Sketch 51.1 (57501) - http://www.bohemiancoding.com/sketch -->
    <title>Clear Symbol</title>
    <desc>Created with Sketch.</desc>
    <defs>
        <polygon id="path-1" points="0 0.82 91.1798 0.82 91.1798 92 0 92"></polygon>
        <polygon id="path-3" points="0.8253 0.055 17.0733 0.055 17.0733 19.1227 0.8253 19.1227"></polygon>
    </defs>
    <g id="Page-1" stroke="none" stroke-width="1" fill="none" fill-rule="evenodd">
        <g id="Tap-to-enter-size" transform="translate(-632.000000, -764.000000)">
            <g id="Clear-Symbol" transform="translate(632.000000, 763.000000)">
                <g id="Group-3" transform="translate(0.000000, 2.945100)">
                    <mask id="mask-2" fill="white">
                        <use xlink:href="#path-1"></use>
                    </mask>
                    <g id="Clip-2"></g>
                    <path d="M45.5898,92 C20.4518,92 -0.0002,71.548 -0.0002,46.41 C-0.0002,21.272 20.4518,0.82 45.5898,0.82 C53.3998,0.82 61.1068,2.83 67.8778,6.631 L65.9198,10.119 C59.7448,6.652 52.7148,4.82 45.5898,4.82 C22.6568,4.82 3.9998,23.478 3.9998,46.41 C3.9998,69.343 22.6568,88 45.5898,88 C68.5228,88 87.1798,69.343 87.1798,46.41 L91.1798,46.41 C91.1798,71.548 70.7278,92 45.5898,92" id="Fill-1" fill="#FEFEFE" mask="url(#mask-2)"></path>
                </g>
                <g id="Group-6" transform="translate(58.000000, 0.945100)">
                    <mask id="mask-4" fill="white">
                        <use xlink:href="#path-3"></use>
                    </mask>
                    <g id="Clip-5"></g>
                    <polygon id="Fill-4" fill="#FEFEFE" mask="url(#mask-4)" points="14.2593 0.0547 0.8253 19.1227 17.0733 16.3047"></polygon>
                </g>
            </g>
        </g>
    </g>
</svg>