<?xml version="1.0" encoding="UTF-8"?>
<svg width="599px" height="847px" viewBox="0 0 599 847" version="1.1" xmlns="http://www.w3.org/2000/svg" xmlns:xlink="http://www.w3.org/1999/xlink">
    <!-- Generator: Sketch 51.3 (57544) - http://www.bohemiancoding.com/sketch -->
    <title>Group 196</title>
    <desc>Created with Sketch.</desc>
    <defs>
        <polygon id="path-1" points="4.87940056e-07 2.04130401e-08 598.868733 2.04130401e-08 598.868733 847 4.87940056e-07 847"></polygon>
    </defs>
    <g id="Page-3" stroke="none" stroke-width="1" fill="none" fill-rule="evenodd">
        <g id="ROVE_SizingApp" transform="translate(-83.000000, -177.000000)">
            <g id="Group-197">
                <g id="Group-196" transform="translate(83.000000, 177.000000)">
                    <mask id="mask-2" fill="white">
                        <use xlink:href="#path-1"></use>
                    </mask>
                    <g id="Clip-195"></g>
                    <path d="M227.4156,944.3843 C227.4156,944.3843 238.6457,859.8278 220.5504,734.4872 C216.1545,704.0384 210.4882,670.9239 200.9289,641.7221 C196.2747,627.5025 189.4862,614.7053 181.8635,601.9094 C173.8664,588.4869 168.9415,573.4602 162.5053,559.1825 C142.5921,515.0048 107.5967,482.1461 78.27747,444.5566 C59.14288,420.0226 33.02082,402.1857 7.160761,385.1545 C7.160761,385.1545 -15.37858,367.0679 19.51921,361.2619 C44.63653,357.0823 76.62885,362.6572 97.68518,377.1549 C115.3232,389.2995 127.385,407.9571 145.8214,419.0995 C155.503,424.95 173.5772,435.9898 185.1225,429.6449 C185.1225,429.6449 209.0151,423.5856 204.0717,359.4675 L156.2865,123.1553 C156.2865,123.1553 144.7511,59.71569 171.1166,53.948 C171.1166,53.948 199.1283,46.53293 209.8394,103.3818 L241.147,236.8531 C241.147,236.8531 264.2944,306.0431 283.1645,302.7657 C295.1152,300.6894 298.1516,292.9518 301.4958,280.4006 C307.1634,259.1255 305.6248,236.8469 308.2608,215.211 C316.3396,148.8782 329.3542,83.87276 346.6066,19.34434 C346.6066,19.34434 356.4168,-3.219722 374.6035,0.3914177 C398.5727,5.151893 399.3735,29.94666 396.9364,49.95005 C391.6297,93.50494 384.494,136.8337 379.2181,180.4022 C375.8665,208.074 372.699,235.8273 371.0257,263.6586 C370.2953,275.797 367.5839,289.3493 370.519,301.3494 C375.9333,323.4933 391.6433,311.6576 399.942,296.6581 C420.509,259.4864 430.8134,218.0373 442.6269,177.5511 C449.1892,155.0686 464.3555,77.90857 499.8453,84.43136 C533.1735,90.56115 514.1156,137.5838 507.3802,158.6105 C495.5099,195.6599 490.7606,232.194 476.8363,268.5253 C472.9224,278.7408 437.2781,362.9501 455.4006,364.1909 C466.9149,364.9793 476.971,347.5354 482.5496,339.8398 L526.2157,278.0488 L556.7003,230.2623 C556.7003,230.2623 570.3774,207.7502 585.5363,213.7848 C585.5363,213.7848 611.9018,220.3756 590.4797,263.2186 L550.9326,334.8964 L522.0967,376.9151 C522.0967,376.9151 497.3798,416.4622 487.493,459.3052 C487.493,459.3052 462.414,584.4506 449.5933,609.254 C415.9536,715.3736 433.8413,835.4903 442.8283,944.3905" id="Stroke-194" stroke="#FFFFFF" stroke-width="5" mask="url(#mask-2)"></path>
                </g>
            </g>
        </g>
    </g>
</svg>
