<?xml version="1.0" encoding="UTF-8"?>
<svg width="603px" height="849px" viewBox="0 0 603 849" version="1.1" xmlns="http://www.w3.org/2000/svg" xmlns:xlink="http://www.w3.org/1999/xlink">
    <!-- Generator: Sketch 51.1 (57501) - http://www.bohemiancoding.com/sketch -->
    <title>Hand</title>
    <desc>Created with Sketch.</desc>
    <defs></defs>
    <g id="Page-1" stroke="none" stroke-width="1" fill="none" fill-rule="evenodd">
        <g id="Tap-to-enter-size" transform="translate(-81.000000, -175.000000)" stroke="#FFFFFF" stroke-width="3">
            <g id="Hand">
                <path d="M310.41556,1121.38434 C310.41556,1121.38434 321.645686,1036.82781 303.550441,911.48716 C299.154539,881.038407 293.488189,847.923935 283.928927,818.722149 C279.274734,804.502515 272.486236,791.705338 264.863543,778.909397 C256.866389,765.486883 251.941546,750.460241 245.505264,736.182522 C225.592091,692.004764 190.596663,659.146113 161.277472,621.556646 C142.142881,597.022647 116.020822,579.185694 90.1607614,562.154512 C90.1607614,562.154512 67.6214171,544.067917 102.519213,538.261917 C127.636531,534.082288 159.628855,539.657186 180.685185,554.154886 C198.323167,566.299536 210.385016,584.957091 228.821354,596.099471 C238.502965,601.949962 256.577201,612.989767 268.122467,606.644938 C268.122467,606.644938 292.015062,600.585589 287.071681,536.46747 L239.286491,300.155334 C239.286491,300.155334 227.751112,236.715694 254.116633,230.948004 C254.116633,230.948004 282.1283,223.532933 292.83937,280.381811 L324.147036,413.85309 C324.147036,413.85309 347.294416,483.043118 366.164536,479.765657 C378.115159,477.689437 381.151631,469.95181 384.495828,457.400567 C390.163414,436.125492 388.624787,413.846911 391.260844,392.21097 C399.339564,325.878216 412.35425,260.872759 429.606649,196.344339 C429.606649,196.344339 439.416788,173.780278 457.603485,177.391418 C481.572702,182.151893 482.37353,206.946655 479.936443,226.950045 C474.629724,270.504937 467.493954,313.833669 462.218131,357.402154 C458.866519,385.073964 455.699048,412.827339 454.025713,440.658572 C453.295329,452.797044 450.583885,466.349322 453.519017,478.349378 C458.933255,500.493252 474.643318,488.657563 482.942019,473.65811 C503.508954,436.486359 513.813431,395.037348 525.626875,354.55106 C532.189213,332.068564 547.355505,254.908571 582.845271,261.431361 C616.173544,267.561153 597.115575,314.583827 590.380219,335.610496 C578.509926,372.659899 573.760573,409.193954 559.836306,445.525331 C555.922384,455.740827 520.278137,539.950081 538.400571,541.19087 C549.914941,541.979339 559.971013,524.535384 565.549618,516.839776 L609.215736,455.048754 L639.700329,407.262328 C639.700329,407.262328 653.377427,384.750172 668.536304,390.784804 C668.536304,390.784804 694.901825,397.375567 673.479685,440.218611 L633.932639,511.896396 L605.096664,553.915132 C605.096664,553.915132 580.37976,593.462177 570.492999,636.305222 C570.492999,636.305222 545.413992,761.450612 532.593335,786.254025 C498.953629,892.373579 516.841252,1012.49031 525.828318,1121.39052" id="Fill-1"></path>
            </g>
        </g>
    </g>
</svg>