<svg fill="#fff" class="logo-svg" xmlns="http://www.w3.org/2000/svg" align="xMinYMin" viewBox="0 14.1 50 21.8"><rect x="5.5" y="30.6" width="5.3" height="5.3"></rect><rect x="5.5" y="25.1" width="5.3" height="5.3"></rect><polygon points="0 25.1 0 35.9 5.3 25.1 "></polygon><polygon points="5.5 19.5 5.5 24.9 10.8 24.9 10.8 14.1 5.5 14.1 "></polygon><polygon points="5.2 24.9 0 19.6 0 24.9 "></polygon><rect y="14.1" width="5.3" height="5.3"></rect><path d="M18.8 19.1c1.1 0 1.9 0.3 2.4 0.9 0.4 0.5 0.7 1.2 0.7 2.2V24c0 0.9-0.3 1.7-1 2.3l1.4 5.6h-2.1L19 27.1c-0.1 0-0.1 0-0.2 0h-1.1V32h-1.9V19.1H18.8zM20 22.2c0-0.8-0.4-1.1-1.1-1.1h-1.2v4.1h1.2c0.3 0 0.6-0.1 0.8-0.3 0.2-0.2 0.3-0.5 0.3-0.8V22.2z"></path><path d="M28.2 18.9c0.9 0 1.6 0.3 2.2 0.9 0.6 0.6 0.9 1.3 0.9 2.2v7c0 0.9-0.3 1.6-0.9 2.2 -0.6 0.6-1.3 0.9-2.2 0.9 -0.9 0-1.6-0.3-2.2-0.9 -0.6-0.6-0.9-1.3-0.9-2.2v-7c0-0.9 0.3-1.6 0.9-2.2C26.6 19.2 27.3 18.9 28.2 18.9zM29.2 21.9c0-0.3-0.1-0.6-0.3-0.8s-0.5-0.3-0.8-0.3c-0.3 0-0.6 0.1-0.8 0.3 -0.2 0.2-0.3 0.5-0.3 0.8V29c0 0.3 0.1 0.6 0.3 0.8 0.2 0.2 0.5 0.3 0.8 0.3 0.3 0 0.6-0.1 0.8-0.3 0.2-0.2 0.3-0.5 0.3-0.8V21.9z"></path><path d="M36.4 32L34 19.1h2l1.6 10.1 1.6-10.1h2L39 32 36.4 32 36.4 32z"></path><path d="M44.4 32V19.1H50v2h-3.6v3.5H49v2h-2.6V30H50v2L44.4 32 44.4 32z"></path><rect x="25.1" y="16.7" width="6.1" height="1.2"></rect></svg>
